<?xml version="1.0" encoding="UTF-8"?>
<svg version="1.1" xmlns="http://www.w3.org/2000/svg" width="1080" height="1080">
<path d="M0 0 C356.4 0 712.8 0 1080 0 C1080 356.4 1080 712.8 1080 1080 C723.6 1080 367.2 1080 0 1080 C0 723.6 0 367.2 0 0 Z " fill="#FEFEFE" transform="translate(0,0)"/>
<path d="M0 0 C39.18798361 -0.1209091 39.18798361 -0.1209091 55.68945312 -0.14648438 C67.05481049 -0.16424144 78.42010083 -0.18504435 89.78540039 -0.22631836 C98.06501939 -0.25637194 106.34458368 -0.27561059 114.62425572 -0.28226548 C119.00171856 -0.28615092 123.37902497 -0.29517779 127.7564373 -0.31719017 C131.89079544 -0.33780856 136.02493523 -0.34378361 140.1593399 -0.33932304 C141.66317755 -0.34013707 143.16702381 -0.34594988 144.67081642 -0.35761642 C171.91272078 -0.55829245 198.71593635 7.17347386 219 26 C219.72413086 26.64678711 219.72413086 26.64678711 220.46289062 27.30664062 C238.43399976 43.43219298 249.94540838 66.89051821 252 91 C253.48243902 119.9259659 245.19130942 144.83338752 225.82421875 166.42578125 C221.85580743 170.51748302 217.66432017 173.73776889 213 177 C214.11117187 177.68964844 215.22234375 178.37929688 216.3671875 179.08984375 C224.92106429 184.46585137 232.77052598 189.88650685 240 197 C240.75410156 197.6703125 241.50820313 198.340625 242.28515625 199.03125 C246.9643765 203.33324323 250.47375389 207.90865183 253.75 213.3125 C254.10263916 213.89209473 254.45527832 214.47168945 254.81860352 215.06884766 C258.19483326 220.88993342 260.35221626 226.64531903 263 233 C299.63 233.495 299.63 233.495 337 234 C337 203.97 337 173.94 337 143 C351.52 143 366.04 143 381 143 C381 173.03 381 203.06 381 234 C411.36 234 441.72 234 473 234 C473 248.52 473 263.04 473 278 C442.97 278 412.94 278 382 278 C382 308.36 382 338.72 382 370 C367.15 370 352.3 370 337 370 C337 339.64 337 309.28 337 278 C313.57 278 290.14 278 266 278 C266 280.31 266 282.62 266 285 C264.07754385 296.72445299 259.79551023 306.71973453 254 317 C253.443125 317.99902344 252.88625 318.99804688 252.3125 320.02734375 C247.82369318 327.54825325 242.11611534 333.79663623 236 340 C235.29230469 340.72058594 234.58460938 341.44117188 233.85546875 342.18359375 C211.44029533 363.48443732 180.28625048 370.37394357 150.28588867 370.22705078 C148.64852404 370.22648529 147.0111589 370.22680592 145.37379456 370.22793579 C140.96970066 370.22850492 136.56571777 370.21682257 132.16164947 370.20278788 C127.54391415 370.19020649 122.92617572 370.18910422 118.3084259 370.18673706 C109.5823402 370.18054392 100.85630517 370.16416268 92.13024169 370.14403808 C80.32579738 370.11741027 68.52133902 370.10668892 56.71687222 370.09503365 C38.14454359 370.07628032 19.57232185 370.03642028 1 370 C1 345.25 1 320.5 1 295 C17.17 295 33.34 295 50 295 C50 304.57 50 314.14 50 324 C64.7179749 323.95954301 79.43564149 323.90252739 94.15341949 323.81609726 C100.98883907 323.77647371 107.82414631 323.74399734 114.65966797 323.72900391 C121.26694128 323.71449024 127.87390139 323.67918969 134.48103333 323.63169098 C136.99092056 323.61695219 139.50085759 323.60896334 142.01078796 323.60811615 C163.84339092 323.59334715 184.14185071 322.31312432 200.75 306.34375 C207.59678429 299.21168303 211.63472622 292.30689269 215 283 C215.32097656 282.22269531 215.64195312 281.44539063 215.97265625 280.64453125 C221.02604702 266.9886241 218.55789156 250.6211872 212.74291992 237.69458008 C206.08595961 223.73837047 195.36382185 213.77997229 181.08984375 208.04296875 C173.17732411 205.37211825 166.30551165 204.69745377 157.984375 204.68115234 C156.80302475 204.67110672 155.6216745 204.6610611 154.40452576 204.65071106 C150.51968855 204.61994672 146.63492006 204.60286242 142.75 204.5859375 C140.04856911 204.56829855 137.34716252 204.54774185 134.64575195 204.5272522 C128.27471902 204.48059298 121.90366937 204.44378697 115.53255367 204.41057932 C108.27489445 204.37226668 101.01732353 204.32288069 93.75973892 204.27259517 C78.8398854 204.16946669 63.91998967 204.08160613 49 204 C49 189.15 49 174.3 49 159 C59.9828125 158.96132813 59.9828125 158.96132813 71.1875 158.921875 C75.8542006 158.89667848 80.52083819 158.87032384 85.1875 158.83984375 C92.57812657 158.79168105 99.96860708 158.74757182 107.359375 158.72900391 C113.32478083 158.71374687 119.2898019 158.67914223 125.2550354 158.63169098 C127.51930375 158.61696996 129.78362707 158.60896438 132.04794312 158.60811615 C152.12997744 158.59304151 170.52130249 157.12566451 186 143 C196.66809802 131.75628518 202.01896884 117.85876874 202.3125 102.375 C201.84117221 85.34572197 196.20329714 71.55316424 183.75 59.6875 C172.93312856 50.6020727 159.96573171 46.54691205 146.04248047 46.56762695 C144.99738815 46.5574353 143.95229584 46.54724365 142.87553406 46.53674316 C139.45602939 46.50679366 136.03680568 46.49737476 132.6171875 46.48828125 C130.23250409 46.47142121 127.8478295 46.4532692 125.46316528 46.43388367 C119.21287796 46.38652169 112.96262639 46.35662301 106.71221924 46.33044434 C100.32369936 46.30056912 93.93530249 46.25406273 87.546875 46.20898438 C75.03130044 46.12310817 62.51573836 46.05723179 50 46 C50 57.88 50 69.76 50 82 C33.5 82 17 82 0 82 C0 54.94 0 27.88 0 0 Z " fill="#020202" transform="translate(441,331)"/>
<path d="M0 0 C16.17 0 32.34 0 49 0 C49 51.81 49 103.62 49 157 C108.4 157 167.8 157 229 157 C229 172.18 229 187.36 229 203 C169.93 203 110.86 203 50 203 C50 258.11 50 313.22 50 370 C33.83 370 17.66 370 1 370 C0.87015983 339.47202079 0.74218897 308.94403578 0.61781773 278.41603396 C0.60281425 274.73381749 0.58779041 271.0516011 0.57275391 267.36938477 C0.56976329 266.6369437 0.56677268 265.90450263 0.56369144 265.14986638 C0.52225837 255.01257125 0.47974907 244.87528117 0.43630803 234.73799445 C0.36099382 217.16258029 0.28799133 199.58715795 0.21875 182.01171875 C0.21600838 181.31704189 0.21326676 180.62236504 0.21044207 179.90663737 C-0.02573491 119.93752859 -0.05162064 59.96956325 0 0 Z " fill="#000000" transform="translate(213,331)"/>
<path d="M0 0 C1.9375 0.75 1.9375 0.75 4 2 C4.75 4.125 4.75 4.125 5 6 C2 6 2 6 -0.1875 4 C-0.785625 3.34 -1.38375 2.68 -2 2 C-1.34 1.34 -0.68 0.68 0 0 Z " fill="#0F0F0F" transform="translate(623,385)"/>
</svg>
